<?xml version="1.0" encoding="UTF-8"?>
<svg width="44px" height="34px" viewBox="0 0 44 34" version="1.1" xmlns="http://www.w3.org/2000/svg" xmlns:xlink="http://www.w3.org/1999/xlink">
    <!-- Generator: Sketch 50 (54983) - http://www.bohemiancoding.com/sketch -->
    <title>Combined Shape</title>
    <desc>Created with Sketch.</desc>
    <defs></defs>
    <g id="Page-1" stroke="none" stroke-width="1" fill="none" fill-rule="evenodd">
        <g id="Artboard" transform="translate(-3.000000, -8.000000)" fill="#607782">
            <path d="M6,8 L44,8 C45.6568542,8 47,9.34314575 47,11 C47,12.6568542 45.6568542,14 44,14 L6,14 C4.34314575,14 3,12.6568542 3,11 C3,9.34314575 4.34314575,8 6,8 Z M6,22 L44,22 C45.6568542,22 47,23.3431458 47,25 C47,26.6568542 45.6568542,28 44,28 L6,28 C4.34314575,28 3,26.6568542 3,25 C3,23.3431458 4.34314575,22 6,22 Z M6,36 L44,36 C45.6568542,36 47,37.3431458 47,39 C47,40.6568542 45.6568542,42 44,42 L6,42 C4.34314575,42 3,40.6568542 3,39 C3,37.3431458 4.34314575,36 6,36 Z" id="Combined-Shape"></path>
        </g>
    </g>
</svg>
