<?xml version="1.0" encoding="UTF-8"?>
<svg width="40px" height="40px" viewBox="0 0 40 40" version="1.1" xmlns="http://www.w3.org/2000/svg" xmlns:xlink="http://www.w3.org/1999/xlink">
    <!-- Generator: Sketch 50 (54983) - http://www.bohemiancoding.com/sketch -->
    <title>_logo</title>
    <desc>Created with Sketch.</desc>
    <defs></defs>
    <g id="Page-1" stroke="none" stroke-width="1" fill="none" fill-rule="evenodd">
        <g id="/" transform="translate(-30.000000, -10.000000)" fill="#FFFFFF">
            <g id="_main-nav">
                <g id="_logo-group" transform="translate(30.000000, 10.000000)">
                    <path d="M0.188383046,16.1049869 L2.76295133,13.2283465 L11.7425432,23.9370079 L0.188383046,16.1049869 Z M2.76295133,30.3412073 L2.76295133,26.4566929 L16.577708,28.3884514 L2.76295133,30.3412073 Z M14.1915228,39.160105 L11.596023,36.2834646 L23.1501832,28.4514436 L14.1915228,39.160105 Z M28.5504971,38.0682415 L24.6991104,37.6692913 L28.0690738,24.0839895 L28.5504971,38.0682415 Z M38.5138671,27.6115486 L35.3741497,29.8792651 L28.822606,17.5328084 L38.5138671,27.6115486 Z M38.9324961,13.144357 L38.1161695,16.9448819 L25.0130822,12.1574803 L38.9324961,13.144357 Z M29.5970696,2.12073491 L31.522763,5.50131234 L18.5871272,10.7296588 L29.5970696,2.12073491 Z M15.3008896,0.209973753 L18.9848247,1.40682415 L12.8728414,13.984252 L15.3008896,0.209973753 Z M3.39089482,8.35695538 L6.92830979,6.78215223 L10.7796965,20.2414698 L3.39089482,8.35695538 Z M0,22.4251969 L1.56985871,18.8766404 L13.4170591,26.2887139 L0,22.4251969 Z M6.84458399,35.1496063 L5.65149137,31.4540682 L19.3825222,29.0183727 L6.84458399,35.1496063 Z M20.4290947,40 L17.0591313,38.0682415 L25.6619571,27.023622 L20.4290947,40 Z M33.762428,34.4986877 L29.9738357,35.3175853 L28.9900576,21.3543307 L33.762428,34.4986877 Z M40,21.4593176 L37.718472,24.6089239 L27.6713762,14.8871391 L40,21.4593176 Z M35.9392988,7.60104987 L36.3369963,11.4645669 L22.396651,10.9816273 L35.9392988,7.60104987 Z M23.6734694,0 L26.541078,2.60367454 L15.8660387,11.6115486 L23.6734694,0 Z M9.48194662,2.60367454 L13.3542648,2.60367454 L11.40764,16.4619423 L9.48194662,2.60367454 Z" id="_logo"></path>
                </g>
            </g>
        </g>
    </g>
</svg>
